{
  "accessors": [
    {
      "bufferView": 2,
      "componentType": 5126,
      "count": 882,
      "max": [
        0.2810993492603302,
        0.28200966119766235,
        0.8505443334579468
      ],
      "min": [
        -0.2811189293861389,
        -0.2888721227645874,
        0.03462406247854233
      ],
      "type": "VEC3"
    },
    {
      "bufferView": 2,
      "byteOffset": 10584,
      "componentType": 5126,
      "count": 882,
      "max": [
        0.858996570110321,
        0.9913239479064941,
        0.9998266696929932
      ],
      "min": [
        -0.8589950203895569,
        -0.9913220405578613,
        -0.9998263716697693
      ],
      "type": "VEC3"
    },
    {
      "bufferView": 3,
      "componentType": 5126,
      "count": 882,
      "max": [
        0.9664447903633118,
        0.9913207292556763,
        0.25551649928092957,
        1.0
      ],
      "min": [
        -0.722281813621521,
        0.09577964246273041,
        -0.6849344968795776,
        1.0
      ],
      "type": "VEC4"
    },
    {
      "bufferView": 1,
      "componentType": 5126,
      "count": 882,
      "max": [
        0.9919512867927551,
        0.6974488496780396
      ],
      "min": [
        0.6842494010925293,
        0.018442876636981964
      ],
      "type": "VEC2"
    },
    {
      "bufferView": 1,
      "byteOffset": 7056,
      "componentType": 5126,
      "count": 882,
      "max": [
        0.0,
        0.0
      ],
      "min": [
        0.0,
        0.0
      ],
      "type": "VEC2"
    },
    {
      "bufferView": 0,
      "componentType": 5125,
      "count": 1398,
      "type": "SCALAR"
    },
    {
      "bufferView": 2,
      "byteOffset": 21168,
      "componentType": 5126,
      "count": 888,
      "max": [
        0.37827056646347046,
        0.3790644705295563,
        0.902927815914154
      ],
      "min": [
        -0.3784041106700897,
        -0.37761014699935913,
        0.004149027168750763
      ],
      "type": "VEC3"
    },
    {
      "bufferView": 2,
      "byteOffset": 31824,
      "componentType": 5126,
      "count": 888,
      "max": [
        0.9999372959136963,
        0.9999369382858276,
        0.9999933242797852
      ],
      "min": [
        -0.9999376535415649,
        -0.9999380111694336,
        -0.999993085861206
      ],
      "type": "VEC3"
    },
    {
      "bufferView": 3,
      "byteOffset": 14112,
      "componentType": 5126,
      "count": 888,
      "max": [
        0.9999585151672363,
        0.9999591708183289,
        0.9998982548713684,
        1.0
      ],
      "min": [
        -0.9999492168426514,
        -0.9999384880065918,
        -0.5099921822547913,
        -1.0
      ],
      "type": "VEC4"
    },
    {
      "bufferView": 1,
      "byteOffset": 14112,
      "componentType": 5126,
      "count": 888,
      "max": [
        0.6652368307113647,
        0.7292847037315369
      ],
      "min": [
        0.000888605834916234,
        0.000888605834916234
      ],
      "type": "VEC2"
    },
    {
      "bufferView": 0,
      "byteOffset": 5592,
      "componentType": 5125,
      "count": 4032,
      "type": "SCALAR"
    },
    {
      "bufferView": 2,
      "byteOffset": 42480,
      "componentType": 5126,
      "count": 1000,
      "max": [
        0.37735000252723694,
        0.3802081048488617,
        0.9077045321464539
      ],
      "min": [
        -0.37746670842170715,
        -0.37460851669311523,
        0.0002151336520910263
      ],
      "type": "VEC3"
    },
    {
      "bufferView": 2,
      "byteOffset": 54480,
      "componentType": 5126,
      "count": 1000,
      "max": [
        0.9872878789901733,
        0.9873173236846924,
        0.9999649524688721
      ],
      "min": [
        -0.9872974157333374,
        -0.9872679710388184,
        -0.999969482421875
      ],
      "type": "VEC3"
    },
    {
      "bufferView": 3,
      "byteOffset": 28320,
      "componentType": 5126,
      "count": 1000,
      "max": [
        1.0,
        1.0,
        0.0011976870009675622,
        1.0
      ],
      "min": [
        -1.0,
        -1.0,
        -0.0029305857606232166,
        1.0
      ],
      "type": "VEC4"
    },
    {
      "bufferView": 1,
      "byteOffset": 21216,
      "componentType": 5126,
      "count": 1000,
      "max": [
        0.9896183013916016,
        0.9904866218566895
      ],
      "min": [
        0.011204451322555542,
        0.7340110540390015
      ],
      "type": "VEC2"
    },
    {
      "bufferView": 0,
      "byteOffset": 21720,
      "componentType": 5125,
      "count": 4896,
      "type": "SCALAR"
    }
  ],
  "asset": {
    "extras": {
      "author": "gedim21 (https://sketchfab.com/gedim21)",
      "license": "CC-BY-4.0 (http://creativecommons.org/licenses/by/4.0/)",
      "source": "https://sketchfab.com/3d-models/wooden-barrel-b823e6f597824b839917a8963ab9a4e1",
      "title": "Wooden barrel"
    },
    "generator": "Sketchfab-12.67.0",
    "version": "2.0"
  },
  "bufferViews": [
    {
      "buffer": 0,
      "byteLength": 41304,
      "name": "floatBufferViews",
      "target": 34963
    },
    {
      "buffer": 0,
      "byteLength": 29216,
      "byteOffset": 41304,
      "byteStride": 8,
      "name": "floatBufferViews",
      "target": 34962
    },
    {
      "buffer": 0,
      "byteLength": 66480,
      "byteOffset": 70520,
      "byteStride": 12,
      "name": "floatBufferViews",
      "target": 34962
    },
    {
      "buffer": 0,
      "byteLength": 44320,
      "byteOffset": 137000,
      "byteStride": 16,
      "name": "floatBufferViews",
      "target": 34962
    }
  ],
  "buffers": [
    {
      "byteLength": 181320,
      "uri": "scene.bin"
    }
  ],
  "images": [
    {
      "uri": "textures/M_Barrel_baseColor.png"
    },
    {
      "uri": "textures/M_Barrel_metallicRoughness.png"
    },
    {
      "uri": "textures/M_Barrel_normal.png"
    }
  ],
  "materials": [
    {
      "doubleSided": true,
      "name": "M_Barrel",
      "normalTexture": {
        "index": 2
      },
      "occlusionTexture": {
        "index": 1
      },
      "pbrMetallicRoughness": {
        "baseColorTexture": {
          "index": 0
        },
        "metallicRoughnessTexture": {
          "index": 1
        }
      }
    }
  ],
  "meshes": [
    {
      "name": "cap_low_M_Barrel_0",
      "primitives": [
        {
          "attributes": {
            "NORMAL": 1,
            "POSITION": 0,
            "TANGENT": 2,
            "TEXCOORD_0": 3,
            "TEXCOORD_1": 4
          },
          "indices": 5,
          "material": 0,
          "mode": 4
        }
      ]
    },
    {
      "name": "planks_low_M_Barrel_0",
      "primitives": [
        {
          "attributes": {
            "NORMAL": 7,
            "POSITION": 6,
            "TANGENT": 8,
            "TEXCOORD_0": 9
          },
          "indices": 10,
          "material": 0,
          "mode": 4
        }
      ]
    },
    {
      "name": "rings_low_M_Barrel_0",
      "primitives": [
        {
          "attributes": {
            "NORMAL": 12,
            "POSITION": 11,
            "TANGENT": 13,
            "TEXCOORD_0": 14
          },
          "indices": 15,
          "material": 0,
          "mode": 4
        }
      ]
    }
  ],
  "nodes": [
    {
      "children": [
        1
      ],
      "matrix": [
        0.009999999776482582,
        0.0,
        0.0,
        0.0,
        0.0,
        2.2204459996194763e-18,
        -0.009999999776482582,
        0.0,
        0.0,
        0.009999999776482582,
        2.2204459996194763e-18,
        0.0,
        0.0,
        -2.099999996119124e-08,
        1.3031999515078496e-06,
        1.0
      ],
      "name": "Sketchfab_model"
    },
    {
      "children": [
        2
      ],
      "matrix": [
        1.0,
        0.0,
        0.0,
        0.0,
        0.0,
        0.0,
        1.0,
        0.0,
        0.0,
        -1.0,
        0.0,
        0.0,
        0.0,
        0.0,
        0.0,
        1.0
      ],
      "name": "569cafe5f2724806a8fb5ff72113dc9d.fbx"
    },
    {
      "children": [
        3,
        5,
        7
      ],
      "name": "RootNode"
    },
    {
      "children": [
        4
      ],
      "matrix": [
        100.0,
        0.0,
        0.0,
        0.0,
        0.0,
        -1.629206793918314e-05,
        -99.99999999999868,
        0.0,
        0.0,
        99.99999999999868,
        -1.629206793918314e-05,
        0.0,
        0.0,
        0.0,
        0.0,
        1.0
      ],
      "name": "cap_low"
    },
    {
      "mesh": 0,
      "name": "cap_low_M_Barrel_0"
    },
    {
      "children": [
        6
      ],
      "matrix": [
        100.0,
        0.0,
        0.0,
        0.0,
        0.0,
        -1.629206793918314e-05,
        -99.99999999999868,
        0.0,
        0.0,
        99.99999999999868,
        -1.629206793918314e-05,
        0.0,
        0.0,
        0.0,
        0.0,
        1.0
      ],
      "name": "planks_low"
    },
    {
      "mesh": 1,
      "name": "planks_low_M_Barrel_0"
    },
    {
      "children": [
        8
      ],
      "matrix": [
        100.0,
        0.0,
        0.0,
        0.0,
        0.0,
        -1.629206793918314e-05,
        -99.99999999999868,
        0.0,
        0.0,
        99.99999999999868,
        -1.629206793918314e-05,
        0.0,
        0.0,
        0.0,
        0.0,
        1.0
      ],
      "name": "rings_low"
    },
    {
      "mesh": 2,
      "name": "rings_low_M_Barrel_0"
    }
  ],
  "samplers": [
    {
      "magFilter": 9729,
      "minFilter": 9987,
      "wrapS": 10497,
      "wrapT": 10497
    }
  ],
  "scene": 0,
  "scenes": [
    {
      "name": "Sketchfab_Scene",
      "nodes": [
        0
      ]
    }
  ],
  "textures": [
    {
      "sampler": 0,
      "source": 0
    },
    {
      "sampler": 0,
      "source": 1
    },
    {
      "sampler": 0,
      "source": 2
    }
  ]
}
