{
  "accessors": [
    {
      "bufferView": 3,
      "componentType": 5126,
      "count": 640,
      "max": [
        6.839660167694092,
        9.142020225524902,
        2.827470064163208
      ],
      "min": [
        -0.8363400101661682,
        -6.349969863891602,
        -3.3632099628448486
      ],
      "type": "VEC3"
    },
    {
      "bufferView": 3,
      "byteOffset": 7680,
      "componentType": 5126,
      "count": 640,
      "max": [
        0.9975326061248779,
        0.9993466734886169,
        0.9937484264373779
      ],
      "min": [
        -0.9975326061248779,
        -0.9991953372955322,
        -0.9937484264373779
      ],
      "type": "VEC3"
    },
    {
      "bufferView": 2,
      "componentType": 5126,
      "count": 640,
      "max": [
        0.0,
        0.0
      ],
      "min": [
        0.0,
        0.0
      ],
      "type": "VEC2"
    },
    {
      "bufferView": 1,
      "componentType": 5125,
      "count": 960,
      "type": "SCALAR"
    },
    {
      "bufferView": 3,
      "byteOffset": 15360,
      "componentType": 5126,
      "count": 4,
      "max": [
        1.0,
        1.0,
        0.0
      ],
      "min": [
        -1.0,
        -1.0,
        0.0
      ],
      "type": "VEC3"
    },
    {
      "bufferView": 3,
      "byteOffset": 15408,
      "componentType": 5126,
      "count": 4,
      "max": [
        0.0,
        0.0,
        1.0
      ],
      "min": [
        0.0,
        0.0,
        1.0
      ],
      "type": "VEC3"
    },
    {
      "bufferView": 1,
      "byteOffset": 3840,
      "componentType": 5125,
      "count": 6,
      "type": "SCALAR"
    },
    {
      "bufferView": 3,
      "byteOffset": 15456,
      "componentType": 5126,
      "count": 4,
      "max": [
        1.0,
        1.0,
        0.0
      ],
      "min": [
        -1.0,
        -1.0,
        0.0
      ],
      "type": "VEC3"
    },
    {
      "bufferView": 3,
      "byteOffset": 15504,
      "componentType": 5126,
      "count": 4,
      "max": [
        0.0,
        0.0,
        1.0
      ],
      "min": [
        0.0,
        0.0,
        1.0
      ],
      "type": "VEC3"
    },
    {
      "bufferView": 1,
      "byteOffset": 3864,
      "componentType": 5125,
      "count": 6,
      "type": "SCALAR"
    },
    {
      "bufferView": 3,
      "byteOffset": 15552,
      "componentType": 5126,
      "count": 7613,
      "max": [
        2.8209140300750732,
        3.505854606628418,
        3.6919894218444824
      ],
      "min": [
        -12.012685775756836,
        -28.545978546142578,
        -9.2989501953125
      ],
      "type": "VEC3"
    },
    {
      "bufferView": 3,
      "byteOffset": 106908,
      "componentType": 5126,
      "count": 7613,
      "max": [
        0.9971080422401428,
        0.9992380142211914,
        0.9996412992477417
      ],
      "min": [
        -0.9988464117050171,
        -0.9996275901794434,
        -0.9999938607215881
      ],
      "type": "VEC3"
    },
    {
      "bufferView": 2,
      "byteOffset": 5120,
      "componentType": 5126,
      "count": 7613,
      "max": [
        0.9989500045776367,
        0.9974300265312195
      ],
      "min": [
        0.0010499999625608325,
        0.0010499999625608325
      ],
      "type": "VEC2"
    },
    {
      "bufferView": 1,
      "byteOffset": 3888,
      "componentType": 5125,
      "count": 13119,
      "type": "SCALAR"
    },
    {
      "bufferView": 5,
      "componentType": 5126,
      "count": 5,
      "max": [
        1.0,
        0.16345953941345215,
        0.6837680339813232,
        0.0,
        0.990317165851593,
        1.0,
        0.0,
        0.0,
        0.17128999531269073,
        0.0,
        1.0,
        0.0,
        0.5931400060653687,
        0.6604899764060974,
        1.1504000425338745,
        1.0
      ],
      "min": [
        -0.9337573051452637,
        -0.4283187687397003,
        -0.9999971389770508,
        0.0,
        -0.7030379772186279,
        -0.24176931381225586,
        -0.9326173067092896,
        0.0,
        -0.1387999951839447,
        -0.9987800121307373,
        -0.0,
        0.0,
        -1.5610599517822266,
        0.0,
        -0.09683000296354294,
        1.0
      ],
      "type": "MAT4"
    },
    {
      "bufferView": 0,
      "componentType": 5123,
      "count": 7613,
      "type": "VEC4"
    },
    {
      "bufferView": 4,
      "componentType": 5126,
      "count": 7613,
      "max": [
        1.0,
        0.48661139607429504,
        0.0,
        0.0
      ],
      "min": [
        0.0,
        0.0,
        0.0,
        0.0
      ],
      "type": "VEC4"
    },
    {
      "bufferView": 6,
      "componentType": 5126,
      "count": 29,
      "max": [
        2.0
      ],
      "min": [
        0.041669998317956924
      ],
      "type": "SCALAR"
    },
    {
      "bufferView": 7,
      "componentType": 5126,
      "count": 29,
      "max": [
        0.5251725316047668,
        0.5481641292572021,
        -0.4466671943664551,
        -0.47346848249435425
      ],
      "min": [
        0.4466671943664551,
        0.47346848249435425,
        -0.5251725316047668,
        -0.5481641292572021
      ],
      "type": "VEC4"
    },
    {
      "bufferView": 6,
      "byteOffset": 116,
      "componentType": 5126,
      "count": 43,
      "max": [
        2.0
      ],
      "min": [
        0.041669998317956924
      ],
      "type": "SCALAR"
    },
    {
      "bufferView": 7,
      "byteOffset": 464,
      "componentType": 5126,
      "count": 43,
      "max": [
        -0.033913593739271164,
        -0.4979877471923828,
        0.788417637348175,
        0.3693602979183197
      ],
      "min": [
        -0.18279200792312622,
        -0.6715114116668701,
        0.6414728760719299,
        0.31147530674934387
      ],
      "type": "VEC4"
    },
    {
      "bufferView": 6,
      "byteOffset": 288,
      "componentType": 5126,
      "count": 44,
      "max": [
        2.0
      ],
      "min": [
        0.041669998317956924
      ],
      "type": "SCALAR"
    },
    {
      "bufferView": 7,
      "byteOffset": 1152,
      "componentType": 5126,
      "count": 44,
      "max": [
        0.23914185166358948,
        -0.5638498663902283,
        0.7332430481910706,
        -0.2953576445579529
      ],
      "min": [
        0.19116435945034027,
        -0.6693435907363892,
        0.638403058052063,
        -0.3284513056278229
      ],
      "type": "VEC4"
    },
    {
      "bufferView": 6,
      "byteOffset": 464,
      "componentType": 5126,
      "count": 48,
      "max": [
        2.0
      ],
      "min": [
        0.041669998317956924
      ],
      "type": "SCALAR"
    },
    {
      "bufferView": 7,
      "byteOffset": 1856,
      "componentType": 5126,
      "count": 48,
      "max": [
        0.12678836286067963,
        -0.6707423329353333,
        0.7190576791763306,
        -0.13056252896785736
      ],
      "min": [
        0.10164754092693329,
        -0.7877209782600403,
        0.5885197520256042,
        -0.151035338640213
      ],
      "type": "VEC4"
    }
  ],
  "animations": [
    {
      "channels": [
        {
          "sampler": 0,
          "target": {
            "node": 10,
            "path": "rotation"
          }
        },
        {
          "sampler": 1,
          "target": {
            "node": 11,
            "path": "rotation"
          }
        },
        {
          "sampler": 2,
          "target": {
            "node": 12,
            "path": "rotation"
          }
        },
        {
          "sampler": 3,
          "target": {
            "node": 13,
            "path": "rotation"
          }
        }
      ],
      "name": "Armature.002Action",
      "samplers": [
        {
          "input": 17,
          "interpolation": "LINEAR",
          "output": 18
        },
        {
          "input": 19,
          "interpolation": "LINEAR",
          "output": 20
        },
        {
          "input": 21,
          "interpolation": "LINEAR",
          "output": 22
        },
        {
          "input": 23,
          "interpolation": "LINEAR",
          "output": 24
        }
      ]
    }
  ],
  "asset": {
    "extras": {
      "author": "compost the second (https://sketchfab.com/compostthesecond)",
      "license": "CC-BY-4.0 (http://creativecommons.org/licenses/by/4.0/)",
      "source": "https://sketchfab.com/3d-models/shipwreck-low-poly-dc14bf79a89042b097f04ab83102e856",
      "title": "shipwreck low poly"
    },
    "generator": "Sketchfab-12.68.0",
    "version": "2.0"
  },
  "bufferViews": [
    {
      "buffer": 0,
      "byteLength": 60904,
      "byteStride": 8,
      "name": "shortBufferViews",
      "target": 34962
    },
    {
      "buffer": 0,
      "byteLength": 56364,
      "byteOffset": 60904,
      "name": "floatBufferViews",
      "target": 34963
    },
    {
      "buffer": 0,
      "byteLength": 66024,
      "byteOffset": 117268,
      "byteStride": 8,
      "name": "floatBufferViews",
      "target": 34962
    },
    {
      "buffer": 0,
      "byteLength": 198264,
      "byteOffset": 183292,
      "byteStride": 12,
      "name": "floatBufferViews",
      "target": 34962
    },
    {
      "buffer": 0,
      "byteLength": 121808,
      "byteOffset": 381556,
      "byteStride": 16,
      "name": "floatBufferViews",
      "target": 34962
    },
    {
      "buffer": 0,
      "byteLength": 320,
      "byteOffset": 503364,
      "name": "floatBufferViews"
    },
    {
      "buffer": 0,
      "byteLength": 656,
      "byteOffset": 503684,
      "name": "floatBufferViews"
    },
    {
      "buffer": 0,
      "byteLength": 2624,
      "byteOffset": 504340,
      "byteStride": 16,
      "name": "floatBufferViews"
    }
  ],
  "buffers": [
    {
      "byteLength": 506964,
      "uri": "scene.bin"
    }
  ],
  "images": [
    {
      "uri": "textures/shipwreck_baseColor.png"
    }
  ],
  "materials": [
    {
      "doubleSided": true,
      "name": "shipwreck",
      "pbrMetallicRoughness": {
        "baseColorTexture": {
          "index": 0
        },
        "metallicFactor": 0.0,
        "roughnessFactor": 0.6
      }
    },
    {
      "alphaMode": "BLEND",
      "doubleSided": true,
      "name": "new.001",
      "pbrMetallicRoughness": {
        "baseColorFactor": [
          1.0,
          1.0,
          1.0,
          0.0
        ],
        "metallicFactor": 0.0,
        "roughnessFactor": 0.6
      }
    },
    {
      "alphaMode": "BLEND",
      "doubleSided": true,
      "name": "material",
      "pbrMetallicRoughness": {
        "baseColorFactor": [
          1.0,
          1.0,
          1.0,
          0.0
        ],
        "metallicFactor": 0.0,
        "roughnessFactor": 0.6
      }
    },
    {
      "doubleSided": true,
      "name": "BakedCycles",
      "pbrMetallicRoughness": {
        "baseColorTexture": {
          "index": 0
        },
        "metallicFactor": 0.0,
        "roughnessFactor": 0.6
      }
    }
  ],
  "meshes": [
    {
      "name": "Cube.006_0",
      "primitives": [
        {
          "attributes": {
            "NORMAL": 1,
            "POSITION": 0,
            "TEXCOORD_0": 2
          },
          "indices": 3,
          "material": 3,
          "mode": 4
        }
      ]
    },
    {
      "name": "Plane.002_0",
      "primitives": [
        {
          "attributes": {
            "NORMAL": 5,
            "POSITION": 4
          },
          "indices": 6,
          "material": 2,
          "mode": 4
        }
      ]
    },
    {
      "name": "Plane.003_0",
      "primitives": [
        {
          "attributes": {
            "NORMAL": 8,
            "POSITION": 7
          },
          "indices": 9,
          "material": 1,
          "mode": 4
        }
      ]
    },
    {
      "name": "Cube.002",
      "primitives": [
        {
          "attributes": {
            "JOINTS_0": 15,
            "NORMAL": 11,
            "POSITION": 10,
            "TEXCOORD_0": 12,
            "WEIGHTS_0": 16
          },
          "indices": 13,
          "material": 0,
          "mode": 4
        }
      ]
    }
  ],
  "nodes": [
    {
      "children": [
        1
      ],
      "matrix": [
        0.3928706645965576,
        0.0,
        0.0,
        0.0,
        0.0,
        8.723481150697712e-17,
        -0.3928706645965576,
        0.0,
        0.0,
        0.3928706645965576,
        8.723481150697712e-17,
        0.0,
        0.0,
        0.0,
        0.0,
        1.0
      ],
      "name": "Sketchfab_model"
    },
    {
      "children": [
        2,
        4,
        6,
        8
      ],
      "name": "Root"
    },
    {
      "children": [
        3
      ],
      "matrix": [
        -0.18573000000000003,
        0.19259000000000004,
        0.0,
        0.0,
        -0.19240000000000004,
        -0.18554000000000004,
        0.012100000000000001,
        0.0,
        0.008710000000000002,
        0.008400000000000001,
        0.26728999999999997,
        0.0,
        5.68907,
        11.93165,
        8.823640000000001,
        1.0
      ],
      "name": "Cube.006"
    },
    {
      "mesh": 0,
      "name": "Cube.006_0"
    },
    {
      "children": [
        5
      ],
      "matrix": [
        -9.04328,
        -7.192019999999999,
        7.98048,
        0.0,
        1.06735,
        -8.63389,
        -6.57138,
        0.0,
        10.06291,
        -4.41007,
        7.42867,
        0.0,
        8.6771,
        -6.54915,
        13.095730000000001,
        1.0
      ],
      "name": "Plane.002"
    },
    {
      "mesh": 1,
      "name": "Plane.002_0"
    },
    {
      "children": [
        7
      ],
      "matrix": [
        4.30623,
        13.3618,
        0.3357200000000001,
        0.0,
        -3.08496,
        1.25505,
        -10.381430000000002,
        0.0,
        -12.052890000000001,
        3.78291,
        4.03898,
        0.0,
        -8.41581,
        8.211159999999998,
        11.12075,
        1.0
      ],
      "name": "Plane.003"
    },
    {
      "mesh": 2,
      "name": "Plane.003_0"
    },
    {
      "children": [
        9,
        15,
        14
      ],
      "matrix": [
        1.0,
        0.0,
        0.0,
        0.0,
        0.0,
        1.0,
        0.0,
        0.0,
        0.0,
        0.0,
        1.0,
        0.0,
        5.184549999999999,
        12.32459,
        8.62252,
        1.0
      ],
      "name": "Armature.002"
    },
    {
      "children": [
        10,
        11,
        12,
        13
      ],
      "name": "Armature.002_rootJoint"
    },
    {
      "name": "flag3_Armature.002",
      "rotation": [
        0.5335729122161865,
        0.46400436758995056,
        -0.5335729122161865,
        -0.46400436758995056
      ],
      "scale": [
        0.9999995827674866,
        0.9999995827674866,
        1.0
      ],
      "translation": [
        0.0,
        0.0,
        0.0
      ]
    },
    {
      "name": "flag4_Armature.002",
      "rotation": [
        -0.11818552017211914,
        -0.5054771900177002,
        0.779047966003418,
        0.3515811264514923
      ],
      "scale": [
        1.0000057220458984,
        1.0000066757202148,
        1.0000016689300537
      ],
      "translation": [
        1.1369999647140503,
        0.4633699953556061,
        -0.4565100073814392
      ]
    },
    {
      "name": "flag1_Armature.002",
      "rotation": [
        0.23541972041130066,
        -0.572994589805603,
        0.7261216640472412,
        -0.298332154750824
      ],
      "scale": [
        1.0000003576278687,
        0.9999946355819702,
        0.9999982118606567
      ],
      "translation": [
        -1.5482200384140015,
        -0.6543599963188171,
        0.5301399827003479
      ]
    },
    {
      "name": "flag2_Armature.002",
      "rotation": [
        0.1254667490720749,
        -0.6779180765151978,
        0.7122556567192078,
        -0.13182200491428375
      ],
      "scale": [
        0.9999937415122986,
        0.9999993443489075,
        1.0000004768371582
      ],
      "translation": [
        -0.6869500279426575,
        -0.35701999068260193,
        0.19078999757766724
      ]
    },
    {
      "matrix": [
        -0.25262999999999997,
        0.96756,
        0.0,
        0.0,
        -0.96756,
        -0.25262999999999997,
        0.0,
        0.0,
        0.0,
        0.0,
        1.0,
        0.0,
        -7.579680000000001,
        -18.700850000000003,
        -7.53414,
        1.0
      ],
      "name": "Cube.002"
    },
    {
      "mesh": 3,
      "name": "Cube.002_0",
      "skin": 0
    }
  ],
  "samplers": [
    {
      "magFilter": 9729,
      "minFilter": 9987,
      "wrapS": 10497,
      "wrapT": 10497
    }
  ],
  "scene": 0,
  "scenes": [
    {
      "name": "Sketchfab_Scene",
      "nodes": [
        0
      ]
    }
  ],
  "skins": [
    {
      "inverseBindMatrices": 14,
      "joints": [
        9,
        10,
        11,
        12,
        13
      ],
      "skeleton": 9
    }
  ],
  "textures": [
    {
      "sampler": 0,
      "source": 0
    }
  ]
}
