{
  "accessors": [
    {
      "bufferView": 2,
      "componentType": 5126,
      "count": 65532,
      "max": [
        1.7711440324783325,
        4.3175559043884277,
        3.4144070148468018
      ],
      "min": [
        -3.9704649448394775,
        -2.0351040363311768,
        -3.791572093963623
      ],
      "type": "VEC3"
    },
    {
      "bufferView": 2,
      "byteOffset": 786384,
      "componentType": 5126,
      "count": 65532,
      "max": [
        0.99999809265136719,
        0.99545174837112427,
        0.99959957599639893
      ],
      "min": [
        -0.99148851633071899,
        -0.99999374151229858,
        -0.98718249797821045
      ],
      "type": "VEC3"
    },
    {
      "bufferView": 1,
      "componentType": 5126,
      "count": 65532,
      "max": [
        0.99896502494812012,
        0.99890702962875366
      ],
      "min": [
        0.0023380001075565815,
        0.0022879999596625566
      ],
      "type": "VEC2"
    },
    {
      "bufferView": 0,
      "componentType": 5125,
      "count": 355737,
      "max": [
        65531
      ],
      "min": [
        0
      ],
      "type": "SCALAR"
    },
    {
      "bufferView": 2,
      "byteOffset": 1572768,
      "componentType": 5126,
      "count": 65532,
      "max": [
        0.15350799262523651,
        3.8361120223999023,
        3.3960518836975098
      ],
      "min": [
        -3.5785720348358154,
        -1.9634280204772949,
        -3.4476759433746338
      ],
      "type": "VEC3"
    },
    {
      "bufferView": 2,
      "byteOffset": 2359152,
      "componentType": 5126,
      "count": 65532,
      "max": [
        0.99999350309371948,
        0.97388947010040283,
        0.99994134902954102
      ],
      "min": [
        -0.99772745370864868,
        -0.99957078695297241,
        -0.99709635972976685
      ],
      "type": "VEC3"
    },
    {
      "bufferView": 1,
      "byteOffset": 524256,
      "componentType": 5126,
      "count": 65532,
      "max": [
        0.9927629828453064,
        0.99887698888778687
      ],
      "min": [
        0.011661999858915806,
        0.013957000337541103
      ],
      "type": "VEC2"
    },
    {
      "bufferView": 0,
      "byteOffset": 1422948,
      "componentType": 5125,
      "count": 342954,
      "max": [
        65531
      ],
      "min": [
        0
      ],
      "type": "SCALAR"
    },
    {
      "bufferView": 2,
      "byteOffset": 3145536,
      "componentType": 5126,
      "count": 65532,
      "max": [
        1.7958619594573975,
        4.2937378883361816,
        3.36785888671875
      ],
      "min": [
        -3.0339400768280029,
        -1.8712120056152344,
        -4.0169529914855957
      ],
      "type": "VEC3"
    },
    {
      "bufferView": 2,
      "byteOffset": 3931920,
      "componentType": 5126,
      "count": 65532,
      "max": [
        0.997802734375,
        0.99938356876373291,
        0.9999883770942688
      ],
      "min": [
        -0.95282661914825439,
        -1,
        -0.99999099969863892
      ],
      "type": "VEC3"
    },
    {
      "bufferView": 1,
      "byteOffset": 1048512,
      "componentType": 5126,
      "count": 65532,
      "max": [
        0.99143397808074951,
        1.0174399614334106
      ],
      "min": [
        0.012164999730885029,
        0.015042999759316444
      ],
      "type": "VEC2"
    },
    {
      "bufferView": 0,
      "byteOffset": 2794764,
      "componentType": 5125,
      "count": 330789,
      "max": [
        65531
      ],
      "min": [
        0
      ],
      "type": "SCALAR"
    },
    {
      "bufferView": 2,
      "byteOffset": 4718304,
      "componentType": 5126,
      "count": 65532,
      "max": [
        2.3743050098419189,
        4.2907657623291016,
        3.239109992980957
      ],
      "min": [
        -2.003432035446167,
        -1.7278909683227539,
        -4.0667119026184082
      ],
      "type": "VEC3"
    },
    {
      "bufferView": 2,
      "byteOffset": 5504688,
      "componentType": 5126,
      "count": 65532,
      "max": [
        0.99991363286972046,
        0.9989282488822937,
        0.99998021125793457
      ],
      "min": [
        -0.99217665195465088,
        -0.99996101856231689,
        -0.99999099969863892
      ],
      "type": "VEC3"
    },
    {
      "bufferView": 1,
      "byteOffset": 1572768,
      "componentType": 5126,
      "count": 65532,
      "max": [
        0.99138402938842773,
        0.99892497062683105
      ],
      "min": [
        0.010280000045895576,
        0.0032089999876916409
      ],
      "type": "VEC2"
    },
    {
      "bufferView": 0,
      "byteOffset": 4117920,
      "componentType": 5125,
      "count": 326925,
      "max": [
        65531
      ],
      "min": [
        0
      ],
      "type": "SCALAR"
    },
    {
      "bufferView": 2,
      "byteOffset": 6291072,
      "componentType": 5126,
      "count": 65532,
      "max": [
        2.9477519989013672,
        4.3126897811889648,
        3.2088789939880371
      ],
      "min": [
        -0.87214100360870361,
        -1.5632790327072144,
        -4.066525936126709
      ],
      "type": "VEC3"
    },
    {
      "bufferView": 2,
      "byteOffset": 7077456,
      "componentType": 5126,
      "count": 65532,
      "max": [
        0.99927699565887451,
        0.99707686901092529,
        0.99995887279510498
      ],
      "min": [
        -0.99998623132705688,
        -0.99999397993087769,
        -0.99991261959075928
      ],
      "type": "VEC3"
    },
    {
      "bufferView": 1,
      "byteOffset": 2097024,
      "componentType": 5126,
      "count": 65532,
      "max": [
        0.99205297231674194,
        0.999409019947052
      ],
      "min": [
        0.0039059999398887157,
        0.0055430000647902489
      ],
      "type": "VEC2"
    },
    {
      "bufferView": 0,
      "byteOffset": 5425620,
      "componentType": 5125,
      "count": 318237,
      "max": [
        65531
      ],
      "min": [
        0
      ],
      "type": "SCALAR"
    },
    {
      "bufferView": 2,
      "byteOffset": 7863840,
      "componentType": 5126,
      "count": 65532,
      "max": [
        2.9850039482116699,
        4.0702700614929199,
        3.1751151084899902
      ],
      "min": [
        0.60132098197937012,
        -1.4117170572280884,
        -3.5410981178283691
      ],
      "type": "VEC3"
    },
    {
      "bufferView": 2,
      "byteOffset": 8650224,
      "componentType": 5126,
      "count": 65532,
      "max": [
        0.93139934539794922,
        0.97275245189666748,
        0.99826949834823608
      ],
      "min": [
        -0.99999326467514038,
        -0.99996185302734375,
        -0.82782614231109619
      ],
      "type": "VEC3"
    },
    {
      "bufferView": 1,
      "byteOffset": 2621280,
      "componentType": 5126,
      "count": 65532,
      "max": [
        0.99014699459075928,
        0.99935901165008545
      ],
      "min": [
        0.0039059999398887157,
        0.0050200000405311584
      ],
      "type": "VEC2"
    },
    {
      "bufferView": 0,
      "byteOffset": 6698568,
      "componentType": 5125,
      "count": 342615,
      "max": [
        65531
      ],
      "min": [
        0
      ],
      "type": "SCALAR"
    },
    {
      "bufferView": 2,
      "byteOffset": 9436608,
      "componentType": 5126,
      "count": 23359,
      "max": [
        2.9875390529632568,
        3.2894289493560791,
        3.1163079738616943
      ],
      "min": [
        -3.341717004776001,
        -1.3816720247268677,
        -2.8668398857116699
      ],
      "type": "VEC3"
    },
    {
      "bufferView": 2,
      "byteOffset": 9716916,
      "componentType": 5126,
      "count": 23359,
      "max": [
        0.98051774501800537,
        0.88659030199050903,
        0.99926978349685669
      ],
      "min": [
        -0.99999189376831055,
        -0.9999585747718811,
        -0.99240422248840332
      ],
      "type": "VEC3"
    },
    {
      "bufferView": 1,
      "byteOffset": 3145536,
      "componentType": 5126,
      "count": 23359,
      "max": [
        0.98982697725296021,
        0.99853497743606567
      ],
      "min": [
        0.012001000344753265,
        0.0044840001501142979
      ],
      "type": "VEC2"
    },
    {
      "bufferView": 0,
      "byteOffset": 8069028,
      "componentType": 5125,
      "count": 94380,
      "max": [
        23358
      ],
      "min": [
        0
      ],
      "type": "SCALAR"
    }
  ],
  "asset": {
    "extras": {
      "author": "Archaeological museum (https://sketchfab.com/archmsfbsu)",
      "license": "CC0-1.0 (http://creativecommons.org/publicdomain/zero/1.0/)",
      "source": "https://sketchfab.com/3d-models/-ii-no4-0ce8c23910134d05a096c30ce4eb132e",
      "title": "Яковлевка-II, погребение №4"
    },
    "generator": "Sketchfab-8.42.0",
    "version": "2.0"
  },
  "bufferViews": [
    {
      "buffer": 0,
      "byteLength": 8446548,
      "byteOffset": 0,
      "name": "floatBufferViews",
      "target": 34963
    },
    {
      "buffer": 0,
      "byteLength": 3332408,
      "byteOffset": 8446548,
      "byteStride": 8,
      "name": "floatBufferViews",
      "target": 34962
    },
    {
      "buffer": 0,
      "byteLength": 9997224,
      "byteOffset": 11778956,
      "byteStride": 12,
      "name": "floatBufferViews",
      "target": 34962
    }
  ],
  "buffers": [
    {
      "byteLength": 21776180,
      "uri": "scene.bin"
    }
  ],
  "extensionsUsed": [
    "KHR_materials_unlit"
  ],
  "images": [
    {
      "uri": "textures/Yakovlevka_01.1001_baseColor.jpeg"
    }
  ],
  "materials": [
    {
      "doubleSided": true,
      "emissiveFactor": [
        0,
        0,
        0
      ],
      "extensions": {
        "KHR_materials_unlit": {}
      },
      "name": "Yakovlevka_01.1001",
      "pbrMetallicRoughness": {
        "baseColorFactor": [
          1,
          1,
          1,
          1
        ],
        "baseColorTexture": {
          "index": 0,
          "texCoord": 0
        },
        "metallicFactor": 0,
        "roughnessFactor": 1
      }
    }
  ],
  "meshes": [
    {
      "primitives": [
        {
          "attributes": {
            "NORMAL": 1,
            "POSITION": 0,
            "TEXCOORD_0": 2
          },
          "indices": 3,
          "material": 0,
          "mode": 4
        }
      ]
    },
    {
      "primitives": [
        {
          "attributes": {
            "NORMAL": 5,
            "POSITION": 4,
            "TEXCOORD_0": 6
          },
          "indices": 7,
          "material": 0,
          "mode": 4
        }
      ]
    },
    {
      "primitives": [
        {
          "attributes": {
            "NORMAL": 9,
            "POSITION": 8,
            "TEXCOORD_0": 10
          },
          "indices": 11,
          "material": 0,
          "mode": 4
        }
      ]
    },
    {
      "primitives": [
        {
          "attributes": {
            "NORMAL": 13,
            "POSITION": 12,
            "TEXCOORD_0": 14
          },
          "indices": 15,
          "material": 0,
          "mode": 4
        }
      ]
    },
    {
      "primitives": [
        {
          "attributes": {
            "NORMAL": 17,
            "POSITION": 16,
            "TEXCOORD_0": 18
          },
          "indices": 19,
          "material": 0,
          "mode": 4
        }
      ]
    },
    {
      "primitives": [
        {
          "attributes": {
            "NORMAL": 21,
            "POSITION": 20,
            "TEXCOORD_0": 22
          },
          "indices": 23,
          "material": 0,
          "mode": 4
        }
      ]
    },
    {
      "primitives": [
        {
          "attributes": {
            "NORMAL": 25,
            "POSITION": 24,
            "TEXCOORD_0": 26
          },
          "indices": 27,
          "material": 0,
          "mode": 4
        }
      ]
    }
  ],
  "nodes": [
    {
      "children": [
        1
      ],
      "name": "RootNode (gltf orientation matrix)",
      "rotation": [
        -0.70710678118654746,
        -0,
        -0,
        0.70710678118654757
      ]
    },
    {
      "children": [
        2
      ],
      "matrix": [
        0.94428888197924721,
        0,
        0.13976123170368737,
        0,
        0.10697012800876493,
        0.61434712909931477,
        -0.72273760893728678,
        0,
        -0.089947726112619364,
        0.73061092179093379,
        0.607726748231606,
        0,
        -0.1639171689748764,
        0.65639346837997437,
        0.81751155853271484,
        1
      ],
      "name": "RootNode (model correction matrix)"
    },
    {
      "children": [
        3,
        4,
        5,
        6,
        7,
        8,
        9
      ],
      "name": "Yakovlevka_01.obj.cleaner.materialmerger.gles"
    },
    {
      "mesh": 0,
      "name": ""
    },
    {
      "mesh": 1,
      "name": ""
    },
    {
      "mesh": 2,
      "name": ""
    },
    {
      "mesh": 3,
      "name": ""
    },
    {
      "mesh": 4,
      "name": ""
    },
    {
      "mesh": 5,
      "name": ""
    },
    {
      "mesh": 6,
      "name": ""
    }
  ],
  "samplers": [
    {
      "magFilter": 9729,
      "minFilter": 9987,
      "wrapS": 10497,
      "wrapT": 10497
    }
  ],
  "scene": 0,
  "scenes": [
    {
      "name": "OSG_Scene",
      "nodes": [
        0
      ]
    }
  ],
  "textures": [
    {
      "sampler": 0,
      "source": 0
    }
  ]
}

