{
  "accessors": [
    {
      "bufferView": 2,
      "componentType": 5126,
      "count": 164,
      "max": [
        0.04506999999284744,
        0.07808999717235565,
        2.0197598934173584
      ],
      "min": [
        -0.066880002617836,
        -0.12296000123023987,
        -0.054030001163482666
      ],
      "type": "VEC3"
    },
    {
      "bufferView": 2,
      "byteOffset": 1968,
      "componentType": 5126,
      "count": 164,
      "max": [
        0.9996519088745117,
        0.972575306892395,
        1.0
      ],
      "min": [
        -0.9997161030769348,
        -0.9688235521316528,
        -0.9988241791725159
      ],
      "type": "VEC3"
    },
    {
      "bufferView": 1,
      "componentType": 5126,
      "count": 164,
      "max": [
        0.7281500101089478,
        0.9519799947738647
      ],
      "min": [
        0.011529999785125256,
        0.011529999785125256
      ],
      "type": "VEC2"
    },
    {
      "bufferView": 0,
      "componentType": 5125,
      "count": 288,
      "type": "SCALAR"
    },
    {
      "bufferView": 2,
      "byteOffset": 3936,
      "componentType": 5126,
      "count": 114,
      "max": [
        0.019060000777244568,
        0.08787000179290771,
        9.999999747378752e-06
      ],
      "min": [
        -0.020969999954104424,
        -0.027580000460147858,
        -1.9067000150680542
      ],
      "type": "VEC3"
    },
    {
      "bufferView": 2,
      "byteOffset": 5304,
      "componentType": 5126,
      "count": 114,
      "max": [
        0.9690738916397095,
        0.9992594122886658,
        0.9999896883964539
      ],
      "min": [
        -0.9808189272880554,
        -0.9924400448799133,
        -0.6706898212432861
      ],
      "type": "VEC3"
    },
    {
      "bufferView": 1,
      "byteOffset": 1312,
      "componentType": 5126,
      "count": 114,
      "max": [
        0.9884700179100037,
        0.9340500235557556
      ],
      "min": [
        0.5344200134277344,
        0.011529999785125256
      ],
      "type": "VEC2"
    },
    {
      "bufferView": 0,
      "byteOffset": 1152,
      "componentType": 5125,
      "count": 186,
      "type": "SCALAR"
    }
  ],
  "asset": {
    "extras": {
      "author": "Inuciian (https://sketchfab.com/Inuciian)",
      "license": "CC-BY-4.0 (http://creativecommons.org/licenses/by/4.0/)",
      "source": "https://sketchfab.com/3d-models/fishing-rod-ab78aaf5ea154edcabdc118196916ddd",
      "title": "Fishing Rod"
    },
    "generator": "Sketchfab-12.66.0",
    "version": "2.0"
  },
  "bufferViews": [
    {
      "buffer": 0,
      "byteLength": 1896,
      "name": "floatBufferViews",
      "target": 34963
    },
    {
      "buffer": 0,
      "byteLength": 2224,
      "byteOffset": 1896,
      "byteStride": 8,
      "name": "floatBufferViews",
      "target": 34962
    },
    {
      "buffer": 0,
      "byteLength": 6672,
      "byteOffset": 4120,
      "byteStride": 12,
      "name": "floatBufferViews",
      "target": 34962
    }
  ],
  "buffers": [
    {
      "byteLength": 10792,
      "uri": "scene.bin"
    }
  ],
  "images": [
    {
      "uri": "textures/fishing_rod_mat_baseColor.png"
    }
  ],
  "materials": [
    {
      "doubleSided": true,
      "name": "fishing_rod_mat",
      "pbrMetallicRoughness": {
        "baseColorTexture": {
          "index": 0
        },
        "metallicFactor": 0.0
      }
    }
  ],
  "meshes": [
    {
      "name": "fishing_rod_0",
      "primitives": [
        {
          "attributes": {
            "NORMAL": 1,
            "POSITION": 0,
            "TEXCOORD_0": 2
          },
          "indices": 3,
          "material": 0,
          "mode": 4
        }
      ]
    },
    {
      "name": "fishing_rod_hook_0",
      "primitives": [
        {
          "attributes": {
            "NORMAL": 5,
            "POSITION": 4,
            "TEXCOORD_0": 6
          },
          "indices": 7,
          "material": 0,
          "mode": 4
        }
      ]
    }
  ],
  "nodes": [
    {
      "children": [
        1
      ],
      "matrix": [
        1.0,
        0.0,
        0.0,
        0.0,
        0.0,
        2.220446049250313e-16,
        -1.0,
        0.0,
        0.0,
        1.0,
        2.220446049250313e-16,
        0.0,
        0.0,
        0.0,
        0.0,
        1.0
      ],
      "name": "Sketchfab_model"
    },
    {
      "children": [
        2,
        4
      ],
      "name": "Root"
    },
    {
      "children": [
        3
      ],
      "matrix": [
        0.98627,
        0.14446000000000003,
        -0.08004000000000001,
        0.0,
        -0.15888000000000002,
        0.6976300000000002,
        -0.6986200000000002,
        0.0,
        -0.04508000000000001,
        0.7017400000000001,
        0.7110000000000001,
        0.0,
        -2.21728,
        5.43818,
        -0.25691,
        1.0
      ],
      "name": "fishing_rod"
    },
    {
      "mesh": 0,
      "name": "fishing_rod_0"
    },
    {
      "children": [
        5
      ],
      "matrix": [
        0.92221,
        0.38644000000000006,
        -0.014200000000000003,
        0.0,
        -0.38595000000000007,
        0.9220900000000001,
        0.028290000000000003,
        0.0,
        0.024030000000000003,
        -0.020600000000000004,
        0.9994999999999999,
        0.0,
        -2.35742,
        6.88573,
        1.12748,
        1.0
      ],
      "name": "fishing_rod_hook"
    },
    {
      "mesh": 1,
      "name": "fishing_rod_hook_0"
    }
  ],
  "samplers": [
    {
      "magFilter": 9729,
      "minFilter": 9987,
      "wrapS": 10497,
      "wrapT": 10497
    }
  ],
  "scene": 0,
  "scenes": [
    {
      "name": "Sketchfab_Scene",
      "nodes": [
        0
      ]
    }
  ],
  "textures": [
    {
      "sampler": 0,
      "source": 0
    }
  ]
}
